<svg width="44" height="44" viewBox="0 0 44 44" fill="none" xmlns="http://www.w3.org/2000/svg">
<circle cx="22" cy="22" r="22" fill="url(#paint0_linear_6133_4344)"/>
<g clip-path="url(#clip0_6133_4344)">
<path fill-rule="evenodd" clip-rule="evenodd" d="M23.2908 25.6627C24.1602 25.1348 24.9201 24.4301 25.5258 23.59C25.3298 23.2729 25.191 22.9209 25.1163 22.5513L25.0878 22.413C25.0053 22.0186 24.8127 21.6588 24.5343 21.3795C24.2559 21.1002 23.9045 20.914 23.5248 20.8447C20.4168 20.279 20.4168 15.6056 23.5248 15.0383C23.8916 14.9715 24.2324 14.7956 24.5064 14.5314C24.7803 14.2673 24.9759 13.9261 25.0698 13.5486C24.3389 12.7142 23.4446 12.0553 22.448 11.6168C21.4514 11.1783 20.3761 10.9707 19.2958 11.0082C18.2154 11.0457 17.1556 11.3274 16.1889 11.8339C15.2221 12.3405 14.3713 13.06 13.6948 13.9431C13.0182 14.8263 12.5318 15.8522 12.269 16.9506C12.0062 18.049 11.9731 19.194 12.172 20.307C12.371 21.4201 12.7972 22.4749 13.4215 23.3993C14.0459 24.3237 14.8536 25.0958 15.7893 25.6627V27.4997C15.7893 27.9165 15.9473 28.3162 16.2286 28.6109C16.5099 28.9056 16.8915 29.0711 17.2893 29.0711H21.7893C22.1871 29.0711 22.5686 28.9056 22.85 28.6109C23.1313 28.3162 23.2893 27.9165 23.2893 27.4997L23.2908 25.6627ZM15.7908 31.8211C15.7908 31.5086 15.9093 31.2088 16.1203 30.9878C16.3313 30.7667 16.6174 30.6426 16.9158 30.6426H22.1658C22.4642 30.6426 22.7503 30.7667 22.9613 30.9878C23.1723 31.2088 23.2908 31.5086 23.2908 31.8211C23.2908 32.1337 23.1723 32.4335 22.9613 32.6545C22.7503 32.8755 22.4642 32.9997 22.1658 32.9997H16.9158C16.6174 32.9997 16.3313 32.8755 16.1203 32.6545C15.9093 32.4335 15.7908 32.1337 15.7908 31.8211ZM26.7108 13.6979C26.9853 12.3841 28.7703 12.3763 29.0553 13.6869L29.0688 13.7497L29.0958 13.8723C29.2568 14.5905 29.6158 15.2434 30.1281 15.7496C30.6404 16.2559 31.2835 16.5932 31.9773 16.7197C33.2853 16.9586 33.2853 18.926 31.9773 19.1649C31.2795 19.2921 30.6332 19.6325 30.1194 20.1433C29.6057 20.6541 29.2475 21.3125 29.0898 22.0359L29.0553 22.1961C28.7703 23.5083 26.9838 23.5004 26.7078 22.1851L26.6793 22.0484C26.5281 21.3226 26.174 20.6605 25.6621 20.1464C25.1502 19.6322 24.5038 19.2895 23.8053 19.1617C22.4988 18.9244 22.4988 16.9601 23.8053 16.7213C24.5014 16.5945 25.1459 16.2541 25.6573 15.7433C26.1686 15.2325 26.5238 14.5743 26.6778 13.8519L26.7003 13.7497L26.7108 13.6979Z" fill="white"/>
</g>
<defs>
<linearGradient id="paint0_linear_6133_4344" x1="8.72414" y1="2.26866e-07" x2="36.4138" y2="44" gradientUnits="userSpaceOnUse">
<stop stop-color="#7874CA"/>
<stop offset="1" stop-color="#78C0DB"/>
</linearGradient>
<clipPath id="clip0_6133_4344">
<rect width="21" height="22" fill="white" transform="translate(12 11)"/>
</clipPath>
</defs>
</svg>
